<svg width="1363" height="163" viewBox="0 0 1363 163" fill="none" xmlns="http://www.w3.org/2000/svg">
<path d="M0 15C0 6.71573 6.71573 0 15 0H37V163H15C6.71573 163 0 156.284 0 148V15Z" fill="#424242"/>
<rect width="1097" height="163" transform="translate(37)" fill="#F0F0F0"/>
<path d="M101.906 53.9219L94.3945 51.2383V48.0859L104.602 52.375V54.6367L101.906 53.9219ZM94.3945 56.1719L101.918 53.4297L104.602 52.7852V55.0352L94.3945 59.3242V56.1719ZM114.504 43.9375H117.48L121.863 56.4648L126.246 43.9375H129.223L123.059 61H120.668L114.504 43.9375ZM112.898 43.9375H115.863L116.402 56.1484V61H112.898V43.9375ZM127.863 43.9375H130.84V61H127.324V56.1484L127.863 43.9375ZM139.547 61.2344C138.562 61.2344 137.68 61.0781 136.898 60.7656C136.117 60.4453 135.453 60.0039 134.906 59.4414C134.367 58.8789 133.953 58.2266 133.664 57.4844C133.375 56.7344 133.23 55.9375 133.23 55.0938V54.625C133.23 53.6641 133.367 52.7852 133.641 51.9883C133.914 51.1914 134.305 50.5 134.812 49.9141C135.328 49.3281 135.953 48.8789 136.688 48.5664C137.422 48.2461 138.25 48.0859 139.172 48.0859C140.07 48.0859 140.867 48.2344 141.562 48.5312C142.258 48.8281 142.84 49.25 143.309 49.7969C143.785 50.3438 144.145 51 144.387 51.7656C144.629 52.5234 144.75 53.3672 144.75 54.2969V55.7031H134.672V53.4531H141.434V53.1953C141.434 52.7266 141.348 52.3086 141.176 51.9414C141.012 51.5664 140.762 51.2695 140.426 51.0508C140.09 50.832 139.66 50.7227 139.137 50.7227C138.691 50.7227 138.309 50.8203 137.988 51.0156C137.668 51.2109 137.406 51.4844 137.203 51.8359C137.008 52.1875 136.859 52.6016 136.758 53.0781C136.664 53.5469 136.617 54.0625 136.617 54.625V55.0938C136.617 55.6016 136.688 56.0703 136.828 56.5C136.977 56.9297 137.184 57.3008 137.449 57.6133C137.723 57.9258 138.051 58.168 138.434 58.3398C138.824 58.5117 139.266 58.5977 139.758 58.5977C140.367 58.5977 140.934 58.4805 141.457 58.2461C141.988 58.0039 142.445 57.6406 142.828 57.1562L144.469 58.9375C144.203 59.3203 143.84 59.6875 143.379 60.0391C142.926 60.3906 142.379 60.6797 141.738 60.9062C141.098 61.125 140.367 61.2344 139.547 61.2344ZM150.234 43V61H146.848V43H150.234ZM152.484 54.7891V54.543C152.484 53.6133 152.617 52.7578 152.883 51.9766C153.148 51.1875 153.535 50.5039 154.043 49.9258C154.551 49.3477 155.176 48.8984 155.918 48.5781C156.66 48.25 157.512 48.0859 158.473 48.0859C159.434 48.0859 160.289 48.25 161.039 48.5781C161.789 48.8984 162.418 49.3477 162.926 49.9258C163.441 50.5039 163.832 51.1875 164.098 51.9766C164.363 52.7578 164.496 53.6133 164.496 54.543V54.7891C164.496 55.7109 164.363 56.5664 164.098 57.3555C163.832 58.1367 163.441 58.8203 162.926 59.4062C162.418 59.9844 161.793 60.4336 161.051 60.7539C160.309 61.0742 159.457 61.2344 158.496 61.2344C157.535 61.2344 156.68 61.0742 155.93 60.7539C155.188 60.4336 154.559 59.9844 154.043 59.4062C153.535 58.8203 153.148 58.1367 152.883 57.3555C152.617 56.5664 152.484 55.7109 152.484 54.7891ZM155.859 54.543V54.7891C155.859 55.3203 155.906 55.8164 156 56.2773C156.094 56.7383 156.242 57.1445 156.445 57.4961C156.656 57.8398 156.93 58.1094 157.266 58.3047C157.602 58.5 158.012 58.5977 158.496 58.5977C158.965 58.5977 159.367 58.5 159.703 58.3047C160.039 58.1094 160.309 57.8398 160.512 57.4961C160.715 57.1445 160.863 56.7383 160.957 56.2773C161.059 55.8164 161.109 55.3203 161.109 54.7891V54.543C161.109 54.0273 161.059 53.543 160.957 53.0898C160.863 52.6289 160.711 52.2227 160.5 51.8711C160.297 51.5117 160.027 51.2305 159.691 51.0273C159.355 50.8242 158.949 50.7227 158.473 50.7227C157.996 50.7227 157.59 50.8242 157.254 51.0273C156.926 51.2305 156.656 51.5117 156.445 51.8711C156.242 52.2227 156.094 52.6289 156 53.0898C155.906 53.543 155.859 54.0273 155.859 54.543ZM174.059 58.2344V43H177.457V61H174.398L174.059 58.2344ZM166.043 54.8125V54.5664C166.043 53.5977 166.152 52.7188 166.371 51.9297C166.59 51.1328 166.91 50.4492 167.332 49.8789C167.754 49.3086 168.273 48.8672 168.891 48.5547C169.508 48.2422 170.211 48.0859 171 48.0859C171.742 48.0859 172.391 48.2422 172.945 48.5547C173.508 48.8672 173.984 49.3125 174.375 49.8906C174.773 50.4609 175.094 51.1367 175.336 51.918C175.578 52.6914 175.754 53.5391 175.863 54.4609V55C175.754 55.8828 175.578 56.7031 175.336 57.4609C175.094 58.2188 174.773 58.8828 174.375 59.4531C173.984 60.0156 173.508 60.4531 172.945 60.7656C172.383 61.0781 171.727 61.2344 170.977 61.2344C170.188 61.2344 169.484 61.0742 168.867 60.7539C168.258 60.4336 167.742 59.9844 167.32 59.4062C166.906 58.8281 166.59 58.1484 166.371 57.3672C166.152 56.5859 166.043 55.7344 166.043 54.8125ZM169.418 54.5664V54.8125C169.418 55.3359 169.457 55.8242 169.535 56.2773C169.621 56.7305 169.758 57.1328 169.945 57.4844C170.141 57.8281 170.391 58.0977 170.695 58.293C171.008 58.4805 171.387 58.5742 171.832 58.5742C172.41 58.5742 172.887 58.4453 173.262 58.1875C173.637 57.9219 173.922 57.5586 174.117 57.0977C174.32 56.6367 174.438 56.1055 174.469 55.5039V53.9688C174.445 53.4766 174.375 53.0352 174.258 52.6445C174.148 52.2461 173.984 51.9062 173.766 51.625C173.555 51.3438 173.289 51.125 172.969 50.9688C172.656 50.8125 172.285 50.7344 171.855 50.7344C171.418 50.7344 171.043 50.8359 170.73 51.0391C170.418 51.2344 170.164 51.5039 169.969 51.8477C169.781 52.1914 169.641 52.5977 169.547 53.0664C169.461 53.5273 169.418 54.0273 169.418 54.5664ZM183.855 59.5703L187.219 48.3203H190.84L185.742 62.9102C185.633 63.2305 185.484 63.5742 185.297 63.9414C185.117 64.3086 184.871 64.6562 184.559 64.9844C184.254 65.3203 183.867 65.5938 183.398 65.8047C182.938 66.0156 182.371 66.1211 181.699 66.1211C181.379 66.1211 181.117 66.1016 180.914 66.0625C180.711 66.0234 180.469 65.9688 180.188 65.8984V63.4258C180.273 63.4258 180.363 63.4258 180.457 63.4258C180.551 63.4336 180.641 63.4375 180.727 63.4375C181.172 63.4375 181.535 63.3867 181.816 63.2852C182.098 63.1836 182.324 63.0273 182.496 62.8164C182.668 62.6133 182.805 62.3477 182.906 62.0195L183.855 59.5703ZM182.449 48.3203L185.203 57.5078L185.684 61.082L183.387 61.3281L178.828 48.3203H182.449ZM199.043 57.4961C199.043 57.2539 198.973 57.0352 198.832 56.8398C198.691 56.6445 198.43 56.4648 198.047 56.3008C197.672 56.1289 197.129 55.9727 196.418 55.832C195.777 55.6914 195.18 55.5156 194.625 55.3047C194.078 55.0859 193.602 54.8242 193.195 54.5195C192.797 54.2148 192.484 53.8555 192.258 53.4414C192.031 53.0195 191.918 52.5391 191.918 52C191.918 51.4688 192.031 50.9688 192.258 50.5C192.492 50.0312 192.824 49.6172 193.254 49.2578C193.691 48.8906 194.223 48.6055 194.848 48.4023C195.48 48.1914 196.191 48.0859 196.98 48.0859C198.082 48.0859 199.027 48.2617 199.816 48.6133C200.613 48.9648 201.223 49.4492 201.645 50.0664C202.074 50.6758 202.289 51.3711 202.289 52.1523H198.914C198.914 51.8242 198.844 51.5312 198.703 51.2734C198.57 51.0078 198.359 50.8008 198.07 50.6523C197.789 50.4961 197.422 50.418 196.969 50.418C196.594 50.418 196.27 50.4844 195.996 50.6172C195.723 50.7422 195.512 50.9141 195.363 51.1328C195.223 51.3438 195.152 51.5781 195.152 51.8359C195.152 52.0312 195.191 52.207 195.27 52.3633C195.355 52.5117 195.492 52.6484 195.68 52.7734C195.867 52.8984 196.109 53.0156 196.406 53.125C196.711 53.2266 197.086 53.3203 197.531 53.4062C198.445 53.5938 199.262 53.8398 199.98 54.1445C200.699 54.4414 201.27 54.8477 201.691 55.3633C202.113 55.8711 202.324 56.5391 202.324 57.3672C202.324 57.9297 202.199 58.4453 201.949 58.9141C201.699 59.3828 201.34 59.793 200.871 60.1445C200.402 60.4883 199.84 60.7578 199.184 60.9531C198.535 61.1406 197.805 61.2344 196.992 61.2344C195.812 61.2344 194.812 61.0234 193.992 60.6016C193.18 60.1797 192.562 59.6445 192.141 58.9961C191.727 58.3398 191.52 57.668 191.52 56.9805H194.719C194.734 57.4414 194.852 57.8125 195.07 58.0938C195.297 58.375 195.582 58.5781 195.926 58.7031C196.277 58.8281 196.656 58.8906 197.062 58.8906C197.5 58.8906 197.863 58.832 198.152 58.7148C198.441 58.5898 198.66 58.4258 198.809 58.2227C198.965 58.0117 199.043 57.7695 199.043 57.4961ZM210.352 61.2344C209.367 61.2344 208.484 61.0781 207.703 60.7656C206.922 60.4453 206.258 60.0039 205.711 59.4414C205.172 58.8789 204.758 58.2266 204.469 57.4844C204.18 56.7344 204.035 55.9375 204.035 55.0938V54.625C204.035 53.6641 204.172 52.7852 204.445 51.9883C204.719 51.1914 205.109 50.5 205.617 49.9141C206.133 49.3281 206.758 48.8789 207.492 48.5664C208.227 48.2461 209.055 48.0859 209.977 48.0859C210.875 48.0859 211.672 48.2344 212.367 48.5312C213.062 48.8281 213.645 49.25 214.113 49.7969C214.59 50.3438 214.949 51 215.191 51.7656C215.434 52.5234 215.555 53.3672 215.555 54.2969V55.7031H205.477V53.4531H212.238V53.1953C212.238 52.7266 212.152 52.3086 211.98 51.9414C211.816 51.5664 211.566 51.2695 211.23 51.0508C210.895 50.832 210.465 50.7227 209.941 50.7227C209.496 50.7227 209.113 50.8203 208.793 51.0156C208.473 51.2109 208.211 51.4844 208.008 51.8359C207.812 52.1875 207.664 52.6016 207.562 53.0781C207.469 53.5469 207.422 54.0625 207.422 54.625V55.0938C207.422 55.6016 207.492 56.0703 207.633 56.5C207.781 56.9297 207.988 57.3008 208.254 57.6133C208.527 57.9258 208.855 58.168 209.238 58.3398C209.629 58.5117 210.07 58.5977 210.562 58.5977C211.172 58.5977 211.738 58.4805 212.262 58.2461C212.793 58.0039 213.25 57.6406 213.633 57.1562L215.273 58.9375C215.008 59.3203 214.645 59.6875 214.184 60.0391C213.73 60.3906 213.184 60.6797 212.543 60.9062C211.902 61.125 211.172 61.2344 210.352 61.2344Z" fill="#888888"/>
<path d="M112.125 84.875V119H103.898V84.875H112.125ZM122.391 84.875V91.2266H93.8672V84.875H122.391ZM135.68 119.469C133.617 119.469 131.773 119.148 130.148 118.508C128.523 117.852 127.148 116.953 126.023 115.812C124.914 114.672 124.062 113.359 123.469 111.875C122.891 110.391 122.602 108.82 122.602 107.164V106.273C122.602 104.414 122.859 102.695 123.375 101.117C123.891 99.5234 124.656 98.1328 125.672 96.9453C126.688 95.7578 127.961 94.8359 129.492 94.1797C131.023 93.5078 132.805 93.1719 134.836 93.1719C136.633 93.1719 138.242 93.4609 139.664 94.0391C141.086 94.6172 142.289 95.4453 143.273 96.5234C144.273 97.6016 145.031 98.9062 145.547 100.438C146.078 101.969 146.344 103.688 146.344 105.594V108.805H125.625V103.859H138.633V103.25C138.648 102.406 138.5 101.688 138.188 101.094C137.891 100.5 137.453 100.047 136.875 99.7344C136.297 99.4219 135.594 99.2656 134.766 99.2656C133.906 99.2656 133.195 99.4531 132.633 99.8281C132.086 100.203 131.656 100.719 131.344 101.375C131.047 102.016 130.836 102.758 130.711 103.602C130.586 104.445 130.523 105.336 130.523 106.273V107.164C130.523 108.102 130.648 108.953 130.898 109.719C131.164 110.484 131.539 111.141 132.023 111.688C132.523 112.219 133.117 112.633 133.805 112.93C134.508 113.227 135.305 113.375 136.195 113.375C137.273 113.375 138.336 113.172 139.383 112.766C140.43 112.359 141.328 111.688 142.078 110.75L145.664 115.016C145.148 115.75 144.414 116.461 143.461 117.148C142.523 117.836 141.398 118.398 140.086 118.836C138.773 119.258 137.305 119.469 135.68 119.469ZM160.266 113.375C161 113.375 161.625 113.242 162.141 112.977C162.672 112.695 163.07 112.305 163.336 111.805C163.617 111.289 163.75 110.672 163.734 109.953H171.164C171.18 111.859 170.711 113.531 169.758 114.969C168.82 116.391 167.539 117.5 165.914 118.297C164.305 119.078 162.484 119.469 160.453 119.469C158.469 119.469 156.734 119.148 155.25 118.508C153.766 117.852 152.523 116.945 151.523 115.789C150.539 114.617 149.797 113.25 149.297 111.688C148.812 110.125 148.57 108.43 148.57 106.602V106.062C148.57 104.234 148.812 102.539 149.297 100.977C149.797 99.3984 150.539 98.0312 151.523 96.875C152.523 95.7031 153.758 94.7969 155.227 94.1562C156.711 93.5 158.438 93.1719 160.406 93.1719C162.516 93.1719 164.375 93.5703 165.984 94.3672C167.609 95.1641 168.883 96.3203 169.805 97.8359C170.727 99.3516 171.18 101.188 171.164 103.344H163.734C163.75 102.578 163.633 101.891 163.383 101.281C163.133 100.672 162.742 100.188 162.211 99.8281C161.695 99.4531 161.031 99.2656 160.219 99.2656C159.406 99.2656 158.75 99.4453 158.25 99.8047C157.75 100.164 157.367 100.664 157.102 101.305C156.852 101.93 156.68 102.648 156.586 103.461C156.508 104.273 156.469 105.141 156.469 106.062V106.602C156.469 107.539 156.508 108.422 156.586 109.25C156.68 110.062 156.859 110.781 157.125 111.406C157.391 112.016 157.773 112.5 158.273 112.859C158.773 113.203 159.438 113.375 160.266 113.375ZM182.273 83V119H174.375V83H182.273ZM181.336 105.453L179.484 105.5C179.484 103.719 179.703 102.078 180.141 100.578C180.578 99.0781 181.203 97.7734 182.016 96.6641C182.828 95.5547 183.805 94.6953 184.945 94.0859C186.086 93.4766 187.352 93.1719 188.742 93.1719C189.992 93.1719 191.133 93.3516 192.164 93.7109C193.211 94.0703 194.109 94.6484 194.859 95.4453C195.625 96.2422 196.211 97.2812 196.617 98.5625C197.039 99.8438 197.25 101.406 197.25 103.25V119H189.305V103.203C189.305 102.172 189.156 101.375 188.859 100.812C188.578 100.234 188.172 99.8359 187.641 99.6172C187.109 99.3828 186.461 99.2656 185.695 99.2656C184.773 99.2656 184.023 99.4219 183.445 99.7344C182.867 100.047 182.422 100.484 182.109 101.047C181.812 101.594 181.609 102.242 181.5 102.992C181.391 103.742 181.336 104.562 181.336 105.453ZM231.539 109.93C231.539 109.398 231.461 108.922 231.305 108.5C231.148 108.062 230.859 107.656 230.438 107.281C230.016 106.906 229.406 106.531 228.609 106.156C227.828 105.766 226.797 105.359 225.516 104.938C224.016 104.438 222.57 103.875 221.18 103.25C219.789 102.609 218.547 101.867 217.453 101.023C216.359 100.164 215.492 99.1641 214.852 98.0234C214.211 96.8672 213.891 95.5234 213.891 93.9922C213.891 92.5234 214.219 91.2031 214.875 90.0312C215.531 88.8438 216.445 87.8359 217.617 87.0078C218.805 86.1641 220.195 85.5234 221.789 85.0859C223.383 84.6328 225.125 84.4062 227.016 84.4062C229.516 84.4062 231.719 84.8438 233.625 85.7188C235.547 86.5781 237.047 87.8047 238.125 89.3984C239.219 90.9766 239.766 92.8438 239.766 95H231.586C231.586 94.1406 231.406 93.3828 231.047 92.7266C230.703 92.0703 230.18 91.5547 229.477 91.1797C228.773 90.8047 227.891 90.6172 226.828 90.6172C225.797 90.6172 224.93 90.7734 224.227 91.0859C223.523 91.3984 222.992 91.8203 222.633 92.3516C222.273 92.8672 222.094 93.4375 222.094 94.0625C222.094 94.5781 222.234 95.0469 222.516 95.4688C222.812 95.875 223.227 96.2578 223.758 96.6172C224.305 96.9766 224.961 97.3203 225.727 97.6484C226.508 97.9766 227.383 98.2969 228.352 98.6094C230.164 99.1875 231.773 99.8359 233.18 100.555C234.602 101.258 235.797 102.062 236.766 102.969C237.75 103.859 238.492 104.875 238.992 106.016C239.508 107.156 239.766 108.445 239.766 109.883C239.766 111.414 239.469 112.773 238.875 113.961C238.281 115.148 237.43 116.156 236.32 116.984C235.211 117.797 233.883 118.414 232.336 118.836C230.789 119.258 229.062 119.469 227.156 119.469C225.406 119.469 223.68 119.25 221.977 118.812C220.289 118.359 218.758 117.672 217.383 116.75C216.008 115.812 214.906 114.617 214.078 113.164C213.266 111.695 212.859 109.953 212.859 107.938H221.109C221.109 108.938 221.242 109.781 221.508 110.469C221.773 111.156 222.164 111.711 222.68 112.133C223.195 112.539 223.828 112.836 224.578 113.023C225.328 113.195 226.188 113.281 227.156 113.281C228.203 113.281 229.047 113.133 229.688 112.836C230.328 112.523 230.797 112.117 231.094 111.617C231.391 111.102 231.539 110.539 231.539 109.93ZM256.992 93.6406V99.125H241.711V93.6406H256.992ZM244.922 87.3359H252.82V110.727C252.82 111.398 252.898 111.922 253.055 112.297C253.211 112.656 253.477 112.914 253.852 113.07C254.242 113.211 254.758 113.281 255.398 113.281C255.852 113.281 256.227 113.273 256.523 113.258C256.82 113.227 257.102 113.188 257.367 113.141V118.789C256.695 119.008 255.992 119.172 255.258 119.281C254.523 119.406 253.742 119.469 252.914 119.469C251.227 119.469 249.781 119.203 248.578 118.672C247.391 118.141 246.484 117.305 245.859 116.164C245.234 115.023 244.922 113.539 244.922 111.711V87.3359ZM273.305 112.625V102.172C273.305 101.453 273.203 100.836 273 100.32C272.797 99.8047 272.477 99.4062 272.039 99.125C271.602 98.8281 271.016 98.6797 270.281 98.6797C269.688 98.6797 269.18 98.7812 268.758 98.9844C268.336 99.1875 268.016 99.4922 267.797 99.8984C267.578 100.305 267.469 100.82 267.469 101.445H259.57C259.57 100.273 259.828 99.1875 260.344 98.1875C260.875 97.1719 261.625 96.2891 262.594 95.5391C263.578 94.7891 264.75 94.2109 266.109 93.8047C267.484 93.3828 269.016 93.1719 270.703 93.1719C272.719 93.1719 274.516 93.5078 276.094 94.1797C277.688 94.8516 278.945 95.8594 279.867 97.2031C280.789 98.5312 281.25 100.203 281.25 102.219V112.602C281.25 114.258 281.344 115.516 281.531 116.375C281.719 117.219 281.984 117.961 282.328 118.602V119H274.406C274.031 118.219 273.75 117.266 273.562 116.141C273.391 115 273.305 113.828 273.305 112.625ZM274.266 103.508L274.312 107.727H270.82C270.086 107.727 269.461 107.828 268.945 108.031C268.445 108.234 268.039 108.516 267.727 108.875C267.43 109.219 267.211 109.609 267.07 110.047C266.945 110.484 266.883 110.945 266.883 111.43C266.883 111.898 266.992 112.32 267.211 112.695C267.445 113.055 267.758 113.336 268.148 113.539C268.539 113.742 268.977 113.844 269.461 113.844C270.336 113.844 271.078 113.68 271.688 113.352C272.312 113.008 272.789 112.594 273.117 112.109C273.445 111.625 273.609 111.172 273.609 110.75L275.344 113.984C275.031 114.609 274.672 115.242 274.266 115.883C273.875 116.523 273.383 117.117 272.789 117.664C272.211 118.195 271.5 118.633 270.656 118.977C269.812 119.305 268.789 119.469 267.586 119.469C266.023 119.469 264.586 119.148 263.273 118.508C261.977 117.867 260.938 116.977 260.156 115.836C259.375 114.68 258.984 113.352 258.984 111.852C258.984 110.539 259.219 109.367 259.688 108.336C260.172 107.305 260.898 106.43 261.867 105.711C262.836 104.992 264.07 104.445 265.57 104.07C267.07 103.695 268.836 103.508 270.867 103.508H274.266ZM296.344 113.375C297.078 113.375 297.703 113.242 298.219 112.977C298.75 112.695 299.148 112.305 299.414 111.805C299.695 111.289 299.828 110.672 299.812 109.953H307.242C307.258 111.859 306.789 113.531 305.836 114.969C304.898 116.391 303.617 117.5 301.992 118.297C300.383 119.078 298.562 119.469 296.531 119.469C294.547 119.469 292.812 119.148 291.328 118.508C289.844 117.852 288.602 116.945 287.602 115.789C286.617 114.617 285.875 113.25 285.375 111.688C284.891 110.125 284.648 108.43 284.648 106.602V106.062C284.648 104.234 284.891 102.539 285.375 100.977C285.875 99.3984 286.617 98.0312 287.602 96.875C288.602 95.7031 289.836 94.7969 291.305 94.1562C292.789 93.5 294.516 93.1719 296.484 93.1719C298.594 93.1719 300.453 93.5703 302.062 94.3672C303.688 95.1641 304.961 96.3203 305.883 97.8359C306.805 99.3516 307.258 101.188 307.242 103.344H299.812C299.828 102.578 299.711 101.891 299.461 101.281C299.211 100.672 298.82 100.188 298.289 99.8281C297.773 99.4531 297.109 99.2656 296.297 99.2656C295.484 99.2656 294.828 99.4453 294.328 99.8047C293.828 100.164 293.445 100.664 293.18 101.305C292.93 101.93 292.758 102.648 292.664 103.461C292.586 104.273 292.547 105.141 292.547 106.062V106.602C292.547 107.539 292.586 108.422 292.664 109.25C292.758 110.062 292.938 110.781 293.203 111.406C293.469 112.016 293.852 112.5 294.352 112.859C294.852 113.203 295.516 113.375 296.344 113.375ZM318.586 82.9766V119H310.688V82.9766H318.586ZM334.805 93.6406L323.789 106.555L318.023 112.32L314.578 107.305L319.383 101.047L325.336 93.6406H334.805ZM326.344 119L319.57 107.445L325.406 103.297L335.391 119H326.344Z" fill="black"/>
<path d="M1134 0H1348C1356.28 0 1363 6.71573 1363 15V148C1363 156.284 1356.28 163 1348 163H1134V0Z" fill="#AB4967"/>
<path fill-rule="evenodd" clip-rule="evenodd" d="M1218.75 53C1218.62 53 1218.49 53.0527 1218.4 53.1464C1218.3 53.2402 1218.25 53.3674 1218.25 53.5V109.5C1218.25 109.633 1218.3 109.76 1218.4 109.854C1218.49 109.947 1218.62 110 1218.75 110H1278.25C1278.38 110 1278.51 109.947 1278.6 109.854C1278.7 109.76 1278.75 109.633 1278.75 109.5V64C1278.75 63.8674 1278.7 63.7402 1278.6 63.6464C1278.51 63.5527 1278.38 63.5 1278.25 63.5H1248.5C1247.61 63.5 1246.77 63.1045 1246.2 62.4206L1238.34 53H1218.75ZM1214.15 48.9038C1215.37 47.6848 1217.03 47 1218.75 47H1239.75C1240.64 47 1241.48 47.3955 1242.05 48.0794L1249.91 57.5H1278.25C1279.97 57.5 1281.63 58.1848 1282.85 59.4038C1284.07 60.6228 1284.75 62.2761 1284.75 64V109.5C1284.75 111.224 1284.07 112.877 1282.85 114.096C1281.63 115.315 1279.97 116 1278.25 116H1218.75C1217.03 116 1215.37 115.315 1214.15 114.096C1212.93 112.877 1212.25 111.224 1212.25 109.5V53.5C1212.25 51.7761 1212.93 50.1228 1214.15 48.9038Z" fill="white"/>
<path fill-rule="evenodd" clip-rule="evenodd" d="M1243.97 75.5251C1245.34 76.892 1245.34 79.108 1243.97 80.4749L1237.7 86.75L1243.97 93.0251C1245.34 94.392 1245.34 96.608 1243.97 97.9749C1242.61 99.3417 1240.39 99.3417 1239.03 97.9749L1230.28 89.2249C1228.91 87.858 1228.91 85.642 1230.28 84.2751L1239.03 75.5251C1240.39 74.1583 1242.61 74.1583 1243.97 75.5251Z" fill="white"/>
<path fill-rule="evenodd" clip-rule="evenodd" d="M1252.28 97.9749C1250.91 96.608 1250.91 94.392 1252.28 93.0251L1258.55 86.75L1252.28 80.4749C1250.91 79.108 1250.91 76.892 1252.28 75.5251C1253.64 74.1583 1255.86 74.1583 1257.22 75.5251L1265.97 84.2751C1267.34 85.642 1267.34 87.858 1265.97 89.2249L1257.22 97.9749C1255.86 99.3417 1253.64 99.3417 1252.28 97.9749Z" fill="white"/>
</svg>
