<svg width="1363" height="163" viewBox="0 0 1363 163" fill="none" xmlns="http://www.w3.org/2000/svg">
<path d="M0 15C0 6.71573 6.71573 0 15 0H37V163H15C6.71573 163 0 156.284 0 148V15Z" fill="#424242"/>
<rect width="1097" height="163" transform="translate(37)" fill="#F0F0F0"/>
<path d="M101.906 53.9219L94.3945 51.2383V48.0859L104.602 52.375V54.6367L101.906 53.9219ZM94.3945 56.1719L101.918 53.4297L104.602 52.7852V55.0352L94.3945 59.3242V56.1719ZM114.504 43.9375H117.48L121.863 56.4648L126.246 43.9375H129.223L123.059 61H120.668L114.504 43.9375ZM112.898 43.9375H115.863L116.402 56.1484V61H112.898V43.9375ZM127.863 43.9375H130.84V61H127.324V56.1484L127.863 43.9375ZM139.547 61.2344C138.562 61.2344 137.68 61.0781 136.898 60.7656C136.117 60.4453 135.453 60.0039 134.906 59.4414C134.367 58.8789 133.953 58.2266 133.664 57.4844C133.375 56.7344 133.23 55.9375 133.23 55.0938V54.625C133.23 53.6641 133.367 52.7852 133.641 51.9883C133.914 51.1914 134.305 50.5 134.812 49.9141C135.328 49.3281 135.953 48.8789 136.688 48.5664C137.422 48.2461 138.25 48.0859 139.172 48.0859C140.07 48.0859 140.867 48.2344 141.562 48.5312C142.258 48.8281 142.84 49.25 143.309 49.7969C143.785 50.3438 144.145 51 144.387 51.7656C144.629 52.5234 144.75 53.3672 144.75 54.2969V55.7031H134.672V53.4531H141.434V53.1953C141.434 52.7266 141.348 52.3086 141.176 51.9414C141.012 51.5664 140.762 51.2695 140.426 51.0508C140.09 50.832 139.66 50.7227 139.137 50.7227C138.691 50.7227 138.309 50.8203 137.988 51.0156C137.668 51.2109 137.406 51.4844 137.203 51.8359C137.008 52.1875 136.859 52.6016 136.758 53.0781C136.664 53.5469 136.617 54.0625 136.617 54.625V55.0938C136.617 55.6016 136.688 56.0703 136.828 56.5C136.977 56.9297 137.184 57.3008 137.449 57.6133C137.723 57.9258 138.051 58.168 138.434 58.3398C138.824 58.5117 139.266 58.5977 139.758 58.5977C140.367 58.5977 140.934 58.4805 141.457 58.2461C141.988 58.0039 142.445 57.6406 142.828 57.1562L144.469 58.9375C144.203 59.3203 143.84 59.6875 143.379 60.0391C142.926 60.3906 142.379 60.6797 141.738 60.9062C141.098 61.125 140.367 61.2344 139.547 61.2344ZM150.234 43V61H146.848V43H150.234ZM152.484 54.7891V54.543C152.484 53.6133 152.617 52.7578 152.883 51.9766C153.148 51.1875 153.535 50.5039 154.043 49.9258C154.551 49.3477 155.176 48.8984 155.918 48.5781C156.66 48.25 157.512 48.0859 158.473 48.0859C159.434 48.0859 160.289 48.25 161.039 48.5781C161.789 48.8984 162.418 49.3477 162.926 49.9258C163.441 50.5039 163.832 51.1875 164.098 51.9766C164.363 52.7578 164.496 53.6133 164.496 54.543V54.7891C164.496 55.7109 164.363 56.5664 164.098 57.3555C163.832 58.1367 163.441 58.8203 162.926 59.4062C162.418 59.9844 161.793 60.4336 161.051 60.7539C160.309 61.0742 159.457 61.2344 158.496 61.2344C157.535 61.2344 156.68 61.0742 155.93 60.7539C155.188 60.4336 154.559 59.9844 154.043 59.4062C153.535 58.8203 153.148 58.1367 152.883 57.3555C152.617 56.5664 152.484 55.7109 152.484 54.7891ZM155.859 54.543V54.7891C155.859 55.3203 155.906 55.8164 156 56.2773C156.094 56.7383 156.242 57.1445 156.445 57.4961C156.656 57.8398 156.93 58.1094 157.266 58.3047C157.602 58.5 158.012 58.5977 158.496 58.5977C158.965 58.5977 159.367 58.5 159.703 58.3047C160.039 58.1094 160.309 57.8398 160.512 57.4961C160.715 57.1445 160.863 56.7383 160.957 56.2773C161.059 55.8164 161.109 55.3203 161.109 54.7891V54.543C161.109 54.0273 161.059 53.543 160.957 53.0898C160.863 52.6289 160.711 52.2227 160.5 51.8711C160.297 51.5117 160.027 51.2305 159.691 51.0273C159.355 50.8242 158.949 50.7227 158.473 50.7227C157.996 50.7227 157.59 50.8242 157.254 51.0273C156.926 51.2305 156.656 51.5117 156.445 51.8711C156.242 52.2227 156.094 52.6289 156 53.0898C155.906 53.543 155.859 54.0273 155.859 54.543ZM174.059 58.2344V43H177.457V61H174.398L174.059 58.2344ZM166.043 54.8125V54.5664C166.043 53.5977 166.152 52.7188 166.371 51.9297C166.59 51.1328 166.91 50.4492 167.332 49.8789C167.754 49.3086 168.273 48.8672 168.891 48.5547C169.508 48.2422 170.211 48.0859 171 48.0859C171.742 48.0859 172.391 48.2422 172.945 48.5547C173.508 48.8672 173.984 49.3125 174.375 49.8906C174.773 50.4609 175.094 51.1367 175.336 51.918C175.578 52.6914 175.754 53.5391 175.863 54.4609V55C175.754 55.8828 175.578 56.7031 175.336 57.4609C175.094 58.2188 174.773 58.8828 174.375 59.4531C173.984 60.0156 173.508 60.4531 172.945 60.7656C172.383 61.0781 171.727 61.2344 170.977 61.2344C170.188 61.2344 169.484 61.0742 168.867 60.7539C168.258 60.4336 167.742 59.9844 167.32 59.4062C166.906 58.8281 166.59 58.1484 166.371 57.3672C166.152 56.5859 166.043 55.7344 166.043 54.8125ZM169.418 54.5664V54.8125C169.418 55.3359 169.457 55.8242 169.535 56.2773C169.621 56.7305 169.758 57.1328 169.945 57.4844C170.141 57.8281 170.391 58.0977 170.695 58.293C171.008 58.4805 171.387 58.5742 171.832 58.5742C172.41 58.5742 172.887 58.4453 173.262 58.1875C173.637 57.9219 173.922 57.5586 174.117 57.0977C174.32 56.6367 174.438 56.1055 174.469 55.5039V53.9688C174.445 53.4766 174.375 53.0352 174.258 52.6445C174.148 52.2461 173.984 51.9062 173.766 51.625C173.555 51.3438 173.289 51.125 172.969 50.9688C172.656 50.8125 172.285 50.7344 171.855 50.7344C171.418 50.7344 171.043 50.8359 170.73 51.0391C170.418 51.2344 170.164 51.5039 169.969 51.8477C169.781 52.1914 169.641 52.5977 169.547 53.0664C169.461 53.5273 169.418 54.0273 169.418 54.5664ZM183.855 59.5703L187.219 48.3203H190.84L185.742 62.9102C185.633 63.2305 185.484 63.5742 185.297 63.9414C185.117 64.3086 184.871 64.6562 184.559 64.9844C184.254 65.3203 183.867 65.5938 183.398 65.8047C182.938 66.0156 182.371 66.1211 181.699 66.1211C181.379 66.1211 181.117 66.1016 180.914 66.0625C180.711 66.0234 180.469 65.9688 180.188 65.8984V63.4258C180.273 63.4258 180.363 63.4258 180.457 63.4258C180.551 63.4336 180.641 63.4375 180.727 63.4375C181.172 63.4375 181.535 63.3867 181.816 63.2852C182.098 63.1836 182.324 63.0273 182.496 62.8164C182.668 62.6133 182.805 62.3477 182.906 62.0195L183.855 59.5703ZM182.449 48.3203L185.203 57.5078L185.684 61.082L183.387 61.3281L178.828 48.3203H182.449ZM199.043 57.4961C199.043 57.2539 198.973 57.0352 198.832 56.8398C198.691 56.6445 198.43 56.4648 198.047 56.3008C197.672 56.1289 197.129 55.9727 196.418 55.832C195.777 55.6914 195.18 55.5156 194.625 55.3047C194.078 55.0859 193.602 54.8242 193.195 54.5195C192.797 54.2148 192.484 53.8555 192.258 53.4414C192.031 53.0195 191.918 52.5391 191.918 52C191.918 51.4688 192.031 50.9688 192.258 50.5C192.492 50.0312 192.824 49.6172 193.254 49.2578C193.691 48.8906 194.223 48.6055 194.848 48.4023C195.48 48.1914 196.191 48.0859 196.98 48.0859C198.082 48.0859 199.027 48.2617 199.816 48.6133C200.613 48.9648 201.223 49.4492 201.645 50.0664C202.074 50.6758 202.289 51.3711 202.289 52.1523H198.914C198.914 51.8242 198.844 51.5312 198.703 51.2734C198.57 51.0078 198.359 50.8008 198.07 50.6523C197.789 50.4961 197.422 50.418 196.969 50.418C196.594 50.418 196.27 50.4844 195.996 50.6172C195.723 50.7422 195.512 50.9141 195.363 51.1328C195.223 51.3438 195.152 51.5781 195.152 51.8359C195.152 52.0312 195.191 52.207 195.27 52.3633C195.355 52.5117 195.492 52.6484 195.68 52.7734C195.867 52.8984 196.109 53.0156 196.406 53.125C196.711 53.2266 197.086 53.3203 197.531 53.4062C198.445 53.5938 199.262 53.8398 199.98 54.1445C200.699 54.4414 201.27 54.8477 201.691 55.3633C202.113 55.8711 202.324 56.5391 202.324 57.3672C202.324 57.9297 202.199 58.4453 201.949 58.9141C201.699 59.3828 201.34 59.793 200.871 60.1445C200.402 60.4883 199.84 60.7578 199.184 60.9531C198.535 61.1406 197.805 61.2344 196.992 61.2344C195.812 61.2344 194.812 61.0234 193.992 60.6016C193.18 60.1797 192.562 59.6445 192.141 58.9961C191.727 58.3398 191.52 57.668 191.52 56.9805H194.719C194.734 57.4414 194.852 57.8125 195.07 58.0938C195.297 58.375 195.582 58.5781 195.926 58.7031C196.277 58.8281 196.656 58.8906 197.062 58.8906C197.5 58.8906 197.863 58.832 198.152 58.7148C198.441 58.5898 198.66 58.4258 198.809 58.2227C198.965 58.0117 199.043 57.7695 199.043 57.4961ZM210.352 61.2344C209.367 61.2344 208.484 61.0781 207.703 60.7656C206.922 60.4453 206.258 60.0039 205.711 59.4414C205.172 58.8789 204.758 58.2266 204.469 57.4844C204.18 56.7344 204.035 55.9375 204.035 55.0938V54.625C204.035 53.6641 204.172 52.7852 204.445 51.9883C204.719 51.1914 205.109 50.5 205.617 49.9141C206.133 49.3281 206.758 48.8789 207.492 48.5664C208.227 48.2461 209.055 48.0859 209.977 48.0859C210.875 48.0859 211.672 48.2344 212.367 48.5312C213.062 48.8281 213.645 49.25 214.113 49.7969C214.59 50.3438 214.949 51 215.191 51.7656C215.434 52.5234 215.555 53.3672 215.555 54.2969V55.7031H205.477V53.4531H212.238V53.1953C212.238 52.7266 212.152 52.3086 211.98 51.9414C211.816 51.5664 211.566 51.2695 211.23 51.0508C210.895 50.832 210.465 50.7227 209.941 50.7227C209.496 50.7227 209.113 50.8203 208.793 51.0156C208.473 51.2109 208.211 51.4844 208.008 51.8359C207.812 52.1875 207.664 52.6016 207.562 53.0781C207.469 53.5469 207.422 54.0625 207.422 54.625V55.0938C207.422 55.6016 207.492 56.0703 207.633 56.5C207.781 56.9297 207.988 57.3008 208.254 57.6133C208.527 57.9258 208.855 58.168 209.238 58.3398C209.629 58.5117 210.07 58.5977 210.562 58.5977C211.172 58.5977 211.738 58.4805 212.262 58.2461C212.793 58.0039 213.25 57.6406 213.633 57.1562L215.273 58.9375C215.008 59.3203 214.645 59.6875 214.184 60.0391C213.73 60.3906 213.184 60.6797 212.543 60.9062C211.902 61.125 211.172 61.2344 210.352 61.2344Z" fill="#888888"/>
<path d="M118.594 98.4219V104.75H101.086V98.4219H118.594ZM103.828 84.875V119H95.6016V84.875H103.828ZM124.125 84.875V119H115.922V84.875H124.125ZM127.992 106.578V106.086C127.992 104.227 128.258 102.516 128.789 100.953C129.32 99.375 130.102 98.0078 131.133 96.8516C132.164 95.6953 133.438 94.7969 134.953 94.1562C136.469 93.5 138.219 93.1719 140.203 93.1719C142.203 93.1719 143.961 93.5 145.477 94.1562C147.008 94.7969 148.289 95.6953 149.32 96.8516C150.352 98.0078 151.133 99.375 151.664 100.953C152.195 102.516 152.461 104.227 152.461 106.086V106.578C152.461 108.422 152.195 110.133 151.664 111.711C151.133 113.273 150.352 114.641 149.32 115.812C148.289 116.969 147.016 117.867 145.5 118.508C143.984 119.148 142.234 119.469 140.25 119.469C138.266 119.469 136.508 119.148 134.977 118.508C133.445 117.867 132.164 116.969 131.133 115.812C130.102 114.641 129.32 113.273 128.789 111.711C128.258 110.133 127.992 108.422 127.992 106.578ZM135.891 106.086V106.578C135.891 107.531 135.961 108.422 136.102 109.25C136.242 110.078 136.477 110.805 136.805 111.43C137.133 112.039 137.578 112.516 138.141 112.859C138.703 113.203 139.406 113.375 140.25 113.375C141.078 113.375 141.766 113.203 142.312 112.859C142.875 112.516 143.32 112.039 143.648 111.43C143.977 110.805 144.211 110.078 144.352 109.25C144.492 108.422 144.562 107.531 144.562 106.578V106.086C144.562 105.164 144.492 104.297 144.352 103.484C144.211 102.656 143.977 101.93 143.648 101.305C143.32 100.664 142.875 100.164 142.312 99.8047C141.75 99.4453 141.047 99.2656 140.203 99.2656C139.375 99.2656 138.68 99.4453 138.117 99.8047C137.57 100.164 137.133 100.664 136.805 101.305C136.477 101.93 136.242 102.656 136.102 103.484C135.961 104.297 135.891 105.164 135.891 106.086ZM163.688 111.453L168.375 93.6406H173.32L171.562 102.57L166.922 119H162.961L163.688 111.453ZM161.836 93.6406L164.742 111.312L165.07 119H160.266L154.266 93.6406H161.836ZM177.492 110.938L180.422 93.6406H187.992L182.039 119H177.234L177.492 110.938ZM173.883 93.6406L178.617 111.406L179.344 119H175.336L170.789 102.617L169.102 93.6406H173.883ZM218.297 84.875V119H210.07V84.875H218.297ZM228.562 84.875V91.2266H200.039V84.875H228.562ZM225.773 106.578V106.086C225.773 104.227 226.039 102.516 226.57 100.953C227.102 99.375 227.883 98.0078 228.914 96.8516C229.945 95.6953 231.219 94.7969 232.734 94.1562C234.25 93.5 236 93.1719 237.984 93.1719C239.984 93.1719 241.742 93.5 243.258 94.1562C244.789 94.7969 246.07 95.6953 247.102 96.8516C248.133 98.0078 248.914 99.375 249.445 100.953C249.977 102.516 250.242 104.227 250.242 106.086V106.578C250.242 108.422 249.977 110.133 249.445 111.711C248.914 113.273 248.133 114.641 247.102 115.812C246.07 116.969 244.797 117.867 243.281 118.508C241.766 119.148 240.016 119.469 238.031 119.469C236.047 119.469 234.289 119.148 232.758 118.508C231.227 117.867 229.945 116.969 228.914 115.812C227.883 114.641 227.102 113.273 226.57 111.711C226.039 110.133 225.773 108.422 225.773 106.578ZM233.672 106.086V106.578C233.672 107.531 233.742 108.422 233.883 109.25C234.023 110.078 234.258 110.805 234.586 111.43C234.914 112.039 235.359 112.516 235.922 112.859C236.484 113.203 237.188 113.375 238.031 113.375C238.859 113.375 239.547 113.203 240.094 112.859C240.656 112.516 241.102 112.039 241.43 111.43C241.758 110.805 241.992 110.078 242.133 109.25C242.273 108.422 242.344 107.531 242.344 106.578V106.086C242.344 105.164 242.273 104.297 242.133 103.484C241.992 102.656 241.758 101.93 241.43 101.305C241.102 100.664 240.656 100.164 240.094 99.8047C239.531 99.4453 238.828 99.2656 237.984 99.2656C237.156 99.2656 236.461 99.4453 235.898 99.8047C235.352 100.164 234.914 100.664 234.586 101.305C234.258 101.93 234.023 102.656 233.883 103.484C233.742 104.297 233.672 105.164 233.672 106.086ZM266.086 84.875H279.516C282.141 84.875 284.422 85.2656 286.359 86.0469C288.297 86.8281 289.789 87.9844 290.836 89.5156C291.898 91.0469 292.43 92.9375 292.43 95.1875C292.43 97.1406 292.125 98.7734 291.516 100.086C290.906 101.398 290.055 102.484 288.961 103.344C287.883 104.188 286.625 104.883 285.188 105.43L282.492 106.953H271.219L271.172 100.602H279.516C280.562 100.602 281.43 100.414 282.117 100.039C282.805 99.6641 283.32 99.1328 283.664 98.4453C284.023 97.7422 284.203 96.9062 284.203 95.9375C284.203 94.9531 284.023 94.1094 283.664 93.4062C283.305 92.7031 282.773 92.1641 282.07 91.7891C281.383 91.4141 280.531 91.2266 279.516 91.2266H274.312V119H266.086V84.875ZM284.766 119L277.219 103.906L285.938 103.859L293.578 118.648V119H284.766ZM311.836 112.836V93.6406H319.758V119H312.352L311.836 112.836ZM312.586 107.68L314.648 107.633C314.648 109.336 314.445 110.914 314.039 112.367C313.633 113.805 313.031 115.055 312.234 116.117C311.453 117.18 310.484 118.008 309.328 118.602C308.188 119.18 306.867 119.469 305.367 119.469C304.117 119.469 302.969 119.297 301.922 118.953C300.891 118.594 300 118.039 299.25 117.289C298.5 116.523 297.914 115.547 297.492 114.359C297.086 113.156 296.883 111.719 296.883 110.047V93.6406H304.781V110.094C304.781 110.656 304.852 111.141 304.992 111.547C305.133 111.953 305.336 112.297 305.602 112.578C305.867 112.844 306.195 113.047 306.586 113.188C306.992 113.312 307.453 113.375 307.969 113.375C309.156 113.375 310.086 113.125 310.758 112.625C311.43 112.125 311.898 111.445 312.164 110.586C312.445 109.727 312.586 108.758 312.586 107.68ZM331.875 99.0547V119H323.977V93.6406H331.383L331.875 99.0547ZM330.938 105.453L329.086 105.5C329.086 103.562 329.32 101.836 329.789 100.32C330.258 98.7891 330.922 97.4922 331.781 96.4297C332.641 95.3672 333.664 94.5625 334.852 94.0156C336.055 93.4531 337.391 93.1719 338.859 93.1719C340.031 93.1719 341.102 93.3438 342.07 93.6875C343.055 94.0312 343.898 94.5859 344.602 95.3516C345.32 96.1172 345.867 97.1328 346.242 98.3984C346.633 99.6484 346.828 101.195 346.828 103.039V119H338.883V103.016C338.883 102 338.742 101.227 338.461 100.695C338.18 100.148 337.773 99.7734 337.242 99.5703C336.711 99.3672 336.062 99.2656 335.297 99.2656C334.484 99.2656 333.797 99.4219 333.234 99.7344C332.672 100.047 332.219 100.484 331.875 101.047C331.547 101.594 331.305 102.242 331.148 102.992C331.008 103.742 330.938 104.562 330.938 105.453ZM363.773 108.195H357.047C357.047 106.82 357.141 105.609 357.328 104.562C357.531 103.5 357.875 102.547 358.359 101.703C358.844 100.859 359.5 100.078 360.328 99.3594C361.062 98.75 361.695 98.1641 362.227 97.6016C362.758 97.0391 363.164 96.4688 363.445 95.8906C363.727 95.3125 363.867 94.6953 363.867 94.0391C363.867 93.2266 363.75 92.5625 363.516 92.0469C363.297 91.5312 362.961 91.1484 362.508 90.8984C362.07 90.6328 361.516 90.5 360.844 90.5C360.297 90.5 359.781 90.6328 359.297 90.8984C358.828 91.1641 358.445 91.5781 358.148 92.1406C357.852 92.6875 357.688 93.4141 357.656 94.3203H349.711C349.758 91.9922 350.273 90.1016 351.258 88.6484C352.258 87.1797 353.586 86.1094 355.242 85.4375C356.914 84.75 358.781 84.4062 360.844 84.4062C363.125 84.4062 365.086 84.7578 366.727 85.4609C368.367 86.1641 369.625 87.2109 370.5 88.6016C371.375 89.9766 371.812 91.6719 371.812 93.6875C371.812 95.0312 371.555 96.2031 371.039 97.2031C370.539 98.1875 369.859 99.1094 369 99.9688C368.156 100.812 367.211 101.719 366.164 102.688C365.258 103.484 364.641 104.297 364.312 105.125C363.984 105.938 363.805 106.961 363.773 108.195ZM356.086 115.32C356.086 114.195 356.492 113.258 357.305 112.508C358.117 111.742 359.172 111.359 360.469 111.359C361.766 111.359 362.82 111.742 363.633 112.508C364.445 113.258 364.852 114.195 364.852 115.32C364.852 116.445 364.445 117.391 363.633 118.156C362.82 118.906 361.766 119.281 360.469 119.281C359.172 119.281 358.117 118.906 357.305 118.156C356.492 117.391 356.086 116.445 356.086 115.32Z" fill="black"/>
<path d="M1134 0H1348C1356.28 0 1363 6.71573 1363 15V148C1363 156.284 1356.28 163 1348 163H1134V0Z" fill="#AB4967"/>
<path d="M1260.62 78.8078C1263.81 78.8078 1266.93 79.7552 1269.59 81.5302C1272.25 83.3052 1274.32 85.8281 1275.54 88.7798C1276.76 91.7315 1277.08 94.9795 1276.46 98.1131C1275.84 101.247 1274.3 104.125 1272.04 106.384C1269.78 108.643 1266.9 110.182 1263.77 110.805C1260.63 111.428 1257.39 111.108 1254.43 109.886C1251.48 108.663 1248.96 106.593 1247.18 103.936C1245.41 101.28 1244.46 98.1565 1244.46 94.9616C1244.46 90.6774 1246.16 86.5686 1249.19 83.5392C1252.22 80.5097 1256.33 78.8078 1260.62 78.8078V78.8078ZM1260.62 73.4232C1256.36 73.4232 1252.19 74.6864 1248.65 77.0531C1245.11 79.4198 1242.35 82.7836 1240.72 86.7192C1239.09 90.6549 1238.66 94.9855 1239.49 99.1636C1240.32 103.342 1242.37 107.179 1245.39 110.192C1248.4 113.204 1252.24 115.255 1256.41 116.086C1260.59 116.917 1264.92 116.491 1268.86 114.861C1272.79 113.23 1276.16 110.47 1278.52 106.928C1280.89 103.386 1282.15 99.2215 1282.15 94.9616C1282.15 89.2493 1279.88 83.7709 1275.85 79.7317C1271.81 75.6924 1266.33 73.4232 1260.62 73.4232Z" fill="white"/>
<path d="M1274.08 46.4999H1220.23C1218.8 46.4999 1217.43 47.0672 1216.42 48.0771C1215.41 49.0869 1214.85 50.4565 1214.85 51.8845V105.731C1214.85 107.159 1215.41 108.528 1216.42 109.538C1217.43 110.548 1218.8 111.115 1220.23 111.115H1231V105.731H1220.23V68.0383H1279.46V51.8845C1279.46 50.4565 1278.89 49.0869 1277.88 48.0771C1276.87 47.0672 1275.5 46.4999 1274.08 46.4999V46.4999ZM1220.23 62.6537V51.8845H1274.08V62.6537H1220.23Z" fill="white"/>
<path d="M1255.23 86.8848V103.039L1268.69 94.9617L1255.23 86.8848Z" fill="white"/>
</svg>
