<svg width="1363" height="163" viewBox="0 0 1363 163" fill="none" xmlns="http://www.w3.org/2000/svg">
<path d="M0 15C0 6.71573 6.71573 0 15 0H37V163H15C6.71573 163 0 156.284 0 148V15Z" fill="#424242"/>
<rect width="1097" height="163" transform="translate(37)" fill="#F0F0F0"/>
<path d="M101.906 53.9219L94.3945 51.2383V48.0859L104.602 52.375V54.6367L101.906 53.9219ZM94.3945 56.1719L101.918 53.4297L104.602 52.7852V55.0352L94.3945 59.3242V56.1719ZM114.504 43.9375H117.48L121.863 56.4648L126.246 43.9375H129.223L123.059 61H120.668L114.504 43.9375ZM112.898 43.9375H115.863L116.402 56.1484V61H112.898V43.9375ZM127.863 43.9375H130.84V61H127.324V56.1484L127.863 43.9375ZM139.547 61.2344C138.562 61.2344 137.68 61.0781 136.898 60.7656C136.117 60.4453 135.453 60.0039 134.906 59.4414C134.367 58.8789 133.953 58.2266 133.664 57.4844C133.375 56.7344 133.23 55.9375 133.23 55.0938V54.625C133.23 53.6641 133.367 52.7852 133.641 51.9883C133.914 51.1914 134.305 50.5 134.812 49.9141C135.328 49.3281 135.953 48.8789 136.688 48.5664C137.422 48.2461 138.25 48.0859 139.172 48.0859C140.07 48.0859 140.867 48.2344 141.562 48.5312C142.258 48.8281 142.84 49.25 143.309 49.7969C143.785 50.3438 144.145 51 144.387 51.7656C144.629 52.5234 144.75 53.3672 144.75 54.2969V55.7031H134.672V53.4531H141.434V53.1953C141.434 52.7266 141.348 52.3086 141.176 51.9414C141.012 51.5664 140.762 51.2695 140.426 51.0508C140.09 50.832 139.66 50.7227 139.137 50.7227C138.691 50.7227 138.309 50.8203 137.988 51.0156C137.668 51.2109 137.406 51.4844 137.203 51.8359C137.008 52.1875 136.859 52.6016 136.758 53.0781C136.664 53.5469 136.617 54.0625 136.617 54.625V55.0938C136.617 55.6016 136.688 56.0703 136.828 56.5C136.977 56.9297 137.184 57.3008 137.449 57.6133C137.723 57.9258 138.051 58.168 138.434 58.3398C138.824 58.5117 139.266 58.5977 139.758 58.5977C140.367 58.5977 140.934 58.4805 141.457 58.2461C141.988 58.0039 142.445 57.6406 142.828 57.1562L144.469 58.9375C144.203 59.3203 143.84 59.6875 143.379 60.0391C142.926 60.3906 142.379 60.6797 141.738 60.9062C141.098 61.125 140.367 61.2344 139.547 61.2344ZM150.234 43V61H146.848V43H150.234ZM152.484 54.7891V54.543C152.484 53.6133 152.617 52.7578 152.883 51.9766C153.148 51.1875 153.535 50.5039 154.043 49.9258C154.551 49.3477 155.176 48.8984 155.918 48.5781C156.66 48.25 157.512 48.0859 158.473 48.0859C159.434 48.0859 160.289 48.25 161.039 48.5781C161.789 48.8984 162.418 49.3477 162.926 49.9258C163.441 50.5039 163.832 51.1875 164.098 51.9766C164.363 52.7578 164.496 53.6133 164.496 54.543V54.7891C164.496 55.7109 164.363 56.5664 164.098 57.3555C163.832 58.1367 163.441 58.8203 162.926 59.4062C162.418 59.9844 161.793 60.4336 161.051 60.7539C160.309 61.0742 159.457 61.2344 158.496 61.2344C157.535 61.2344 156.68 61.0742 155.93 60.7539C155.188 60.4336 154.559 59.9844 154.043 59.4062C153.535 58.8203 153.148 58.1367 152.883 57.3555C152.617 56.5664 152.484 55.7109 152.484 54.7891ZM155.859 54.543V54.7891C155.859 55.3203 155.906 55.8164 156 56.2773C156.094 56.7383 156.242 57.1445 156.445 57.4961C156.656 57.8398 156.93 58.1094 157.266 58.3047C157.602 58.5 158.012 58.5977 158.496 58.5977C158.965 58.5977 159.367 58.5 159.703 58.3047C160.039 58.1094 160.309 57.8398 160.512 57.4961C160.715 57.1445 160.863 56.7383 160.957 56.2773C161.059 55.8164 161.109 55.3203 161.109 54.7891V54.543C161.109 54.0273 161.059 53.543 160.957 53.0898C160.863 52.6289 160.711 52.2227 160.5 51.8711C160.297 51.5117 160.027 51.2305 159.691 51.0273C159.355 50.8242 158.949 50.7227 158.473 50.7227C157.996 50.7227 157.59 50.8242 157.254 51.0273C156.926 51.2305 156.656 51.5117 156.445 51.8711C156.242 52.2227 156.094 52.6289 156 53.0898C155.906 53.543 155.859 54.0273 155.859 54.543ZM174.059 58.2344V43H177.457V61H174.398L174.059 58.2344ZM166.043 54.8125V54.5664C166.043 53.5977 166.152 52.7188 166.371 51.9297C166.59 51.1328 166.91 50.4492 167.332 49.8789C167.754 49.3086 168.273 48.8672 168.891 48.5547C169.508 48.2422 170.211 48.0859 171 48.0859C171.742 48.0859 172.391 48.2422 172.945 48.5547C173.508 48.8672 173.984 49.3125 174.375 49.8906C174.773 50.4609 175.094 51.1367 175.336 51.918C175.578 52.6914 175.754 53.5391 175.863 54.4609V55C175.754 55.8828 175.578 56.7031 175.336 57.4609C175.094 58.2188 174.773 58.8828 174.375 59.4531C173.984 60.0156 173.508 60.4531 172.945 60.7656C172.383 61.0781 171.727 61.2344 170.977 61.2344C170.188 61.2344 169.484 61.0742 168.867 60.7539C168.258 60.4336 167.742 59.9844 167.32 59.4062C166.906 58.8281 166.59 58.1484 166.371 57.3672C166.152 56.5859 166.043 55.7344 166.043 54.8125ZM169.418 54.5664V54.8125C169.418 55.3359 169.457 55.8242 169.535 56.2773C169.621 56.7305 169.758 57.1328 169.945 57.4844C170.141 57.8281 170.391 58.0977 170.695 58.293C171.008 58.4805 171.387 58.5742 171.832 58.5742C172.41 58.5742 172.887 58.4453 173.262 58.1875C173.637 57.9219 173.922 57.5586 174.117 57.0977C174.32 56.6367 174.438 56.1055 174.469 55.5039V53.9688C174.445 53.4766 174.375 53.0352 174.258 52.6445C174.148 52.2461 173.984 51.9062 173.766 51.625C173.555 51.3438 173.289 51.125 172.969 50.9688C172.656 50.8125 172.285 50.7344 171.855 50.7344C171.418 50.7344 171.043 50.8359 170.73 51.0391C170.418 51.2344 170.164 51.5039 169.969 51.8477C169.781 52.1914 169.641 52.5977 169.547 53.0664C169.461 53.5273 169.418 54.0273 169.418 54.5664ZM183.855 59.5703L187.219 48.3203H190.84L185.742 62.9102C185.633 63.2305 185.484 63.5742 185.297 63.9414C185.117 64.3086 184.871 64.6562 184.559 64.9844C184.254 65.3203 183.867 65.5938 183.398 65.8047C182.938 66.0156 182.371 66.1211 181.699 66.1211C181.379 66.1211 181.117 66.1016 180.914 66.0625C180.711 66.0234 180.469 65.9688 180.188 65.8984V63.4258C180.273 63.4258 180.363 63.4258 180.457 63.4258C180.551 63.4336 180.641 63.4375 180.727 63.4375C181.172 63.4375 181.535 63.3867 181.816 63.2852C182.098 63.1836 182.324 63.0273 182.496 62.8164C182.668 62.6133 182.805 62.3477 182.906 62.0195L183.855 59.5703ZM182.449 48.3203L185.203 57.5078L185.684 61.082L183.387 61.3281L178.828 48.3203H182.449ZM199.043 57.4961C199.043 57.2539 198.973 57.0352 198.832 56.8398C198.691 56.6445 198.43 56.4648 198.047 56.3008C197.672 56.1289 197.129 55.9727 196.418 55.832C195.777 55.6914 195.18 55.5156 194.625 55.3047C194.078 55.0859 193.602 54.8242 193.195 54.5195C192.797 54.2148 192.484 53.8555 192.258 53.4414C192.031 53.0195 191.918 52.5391 191.918 52C191.918 51.4688 192.031 50.9688 192.258 50.5C192.492 50.0312 192.824 49.6172 193.254 49.2578C193.691 48.8906 194.223 48.6055 194.848 48.4023C195.48 48.1914 196.191 48.0859 196.98 48.0859C198.082 48.0859 199.027 48.2617 199.816 48.6133C200.613 48.9648 201.223 49.4492 201.645 50.0664C202.074 50.6758 202.289 51.3711 202.289 52.1523H198.914C198.914 51.8242 198.844 51.5312 198.703 51.2734C198.57 51.0078 198.359 50.8008 198.07 50.6523C197.789 50.4961 197.422 50.418 196.969 50.418C196.594 50.418 196.27 50.4844 195.996 50.6172C195.723 50.7422 195.512 50.9141 195.363 51.1328C195.223 51.3438 195.152 51.5781 195.152 51.8359C195.152 52.0312 195.191 52.207 195.27 52.3633C195.355 52.5117 195.492 52.6484 195.68 52.7734C195.867 52.8984 196.109 53.0156 196.406 53.125C196.711 53.2266 197.086 53.3203 197.531 53.4062C198.445 53.5938 199.262 53.8398 199.98 54.1445C200.699 54.4414 201.27 54.8477 201.691 55.3633C202.113 55.8711 202.324 56.5391 202.324 57.3672C202.324 57.9297 202.199 58.4453 201.949 58.9141C201.699 59.3828 201.34 59.793 200.871 60.1445C200.402 60.4883 199.84 60.7578 199.184 60.9531C198.535 61.1406 197.805 61.2344 196.992 61.2344C195.812 61.2344 194.812 61.0234 193.992 60.6016C193.18 60.1797 192.562 59.6445 192.141 58.9961C191.727 58.3398 191.52 57.668 191.52 56.9805H194.719C194.734 57.4414 194.852 57.8125 195.07 58.0938C195.297 58.375 195.582 58.5781 195.926 58.7031C196.277 58.8281 196.656 58.8906 197.062 58.8906C197.5 58.8906 197.863 58.832 198.152 58.7148C198.441 58.5898 198.66 58.4258 198.809 58.2227C198.965 58.0117 199.043 57.7695 199.043 57.4961ZM210.352 61.2344C209.367 61.2344 208.484 61.0781 207.703 60.7656C206.922 60.4453 206.258 60.0039 205.711 59.4414C205.172 58.8789 204.758 58.2266 204.469 57.4844C204.18 56.7344 204.035 55.9375 204.035 55.0938V54.625C204.035 53.6641 204.172 52.7852 204.445 51.9883C204.719 51.1914 205.109 50.5 205.617 49.9141C206.133 49.3281 206.758 48.8789 207.492 48.5664C208.227 48.2461 209.055 48.0859 209.977 48.0859C210.875 48.0859 211.672 48.2344 212.367 48.5312C213.062 48.8281 213.645 49.25 214.113 49.7969C214.59 50.3438 214.949 51 215.191 51.7656C215.434 52.5234 215.555 53.3672 215.555 54.2969V55.7031H205.477V53.4531H212.238V53.1953C212.238 52.7266 212.152 52.3086 211.98 51.9414C211.816 51.5664 211.566 51.2695 211.23 51.0508C210.895 50.832 210.465 50.7227 209.941 50.7227C209.496 50.7227 209.113 50.8203 208.793 51.0156C208.473 51.2109 208.211 51.4844 208.008 51.8359C207.812 52.1875 207.664 52.6016 207.562 53.0781C207.469 53.5469 207.422 54.0625 207.422 54.625V55.0938C207.422 55.6016 207.492 56.0703 207.633 56.5C207.781 56.9297 207.988 57.3008 208.254 57.6133C208.527 57.9258 208.855 58.168 209.238 58.3398C209.629 58.5117 210.07 58.5977 210.562 58.5977C211.172 58.5977 211.738 58.4805 212.262 58.2461C212.793 58.0039 213.25 57.6406 213.633 57.1562L215.273 58.9375C215.008 59.3203 214.645 59.6875 214.184 60.0391C213.73 60.3906 213.184 60.6797 212.543 60.9062C211.902 61.125 211.172 61.2344 210.352 61.2344Z" fill="#888888"/>
<path d="M109.219 107.422H100.734V101.07H109.219C110.375 101.07 111.312 100.875 112.031 100.484C112.75 100.094 113.273 99.5547 113.602 98.8672C113.945 98.1641 114.117 97.375 114.117 96.5C114.117 95.5625 113.945 94.6953 113.602 93.8984C113.273 93.1016 112.75 92.4609 112.031 91.9766C111.312 91.4766 110.375 91.2266 109.219 91.2266H103.828V119H95.6016V84.875H109.219C111.953 84.875 114.305 85.375 116.273 86.375C118.258 87.375 119.781 88.75 120.844 90.5C121.906 92.2344 122.438 94.2188 122.438 96.4531C122.438 98.6562 121.906 100.578 120.844 102.219C119.781 103.859 118.258 105.141 116.273 106.062C114.305 106.969 111.953 107.422 109.219 107.422ZM134.461 99.9219V119H126.562V93.6406H133.945L134.461 99.9219ZM141.961 93.4531L141.82 100.789C141.508 100.758 141.086 100.719 140.555 100.672C140.023 100.625 139.578 100.602 139.219 100.602C138.297 100.602 137.5 100.711 136.828 100.93C136.172 101.133 135.625 101.445 135.188 101.867C134.766 102.273 134.453 102.789 134.25 103.414C134.062 104.039 133.977 104.766 133.992 105.594L132.562 104.656C132.562 102.953 132.727 101.406 133.055 100.016C133.398 98.6094 133.883 97.3984 134.508 96.3828C135.133 95.3516 135.891 94.5625 136.781 94.0156C137.672 93.4531 138.672 93.1719 139.781 93.1719C140.172 93.1719 140.555 93.1953 140.93 93.2422C141.32 93.2891 141.664 93.3594 141.961 93.4531ZM142.852 106.578V106.086C142.852 104.227 143.117 102.516 143.648 100.953C144.18 99.375 144.961 98.0078 145.992 96.8516C147.023 95.6953 148.297 94.7969 149.812 94.1562C151.328 93.5 153.078 93.1719 155.062 93.1719C157.062 93.1719 158.82 93.5 160.336 94.1562C161.867 94.7969 163.148 95.6953 164.18 96.8516C165.211 98.0078 165.992 99.375 166.523 100.953C167.055 102.516 167.32 104.227 167.32 106.086V106.578C167.32 108.422 167.055 110.133 166.523 111.711C165.992 113.273 165.211 114.641 164.18 115.812C163.148 116.969 161.875 117.867 160.359 118.508C158.844 119.148 157.094 119.469 155.109 119.469C153.125 119.469 151.367 119.148 149.836 118.508C148.305 117.867 147.023 116.969 145.992 115.812C144.961 114.641 144.18 113.273 143.648 111.711C143.117 110.133 142.852 108.422 142.852 106.578ZM150.75 106.086V106.578C150.75 107.531 150.82 108.422 150.961 109.25C151.102 110.078 151.336 110.805 151.664 111.43C151.992 112.039 152.438 112.516 153 112.859C153.562 113.203 154.266 113.375 155.109 113.375C155.938 113.375 156.625 113.203 157.172 112.859C157.734 112.516 158.18 112.039 158.508 111.43C158.836 110.805 159.07 110.078 159.211 109.25C159.352 108.422 159.422 107.531 159.422 106.578V106.086C159.422 105.164 159.352 104.297 159.211 103.484C159.07 102.656 158.836 101.93 158.508 101.305C158.18 100.664 157.734 100.164 157.172 99.8047C156.609 99.4453 155.906 99.2656 155.062 99.2656C154.234 99.2656 153.539 99.4453 152.977 99.8047C152.43 100.164 151.992 100.664 151.664 101.305C151.336 101.93 151.102 102.656 150.961 103.484C150.82 104.297 150.75 105.164 150.75 106.086ZM184.195 93.6406V99.125H168.914V93.6406H184.195ZM172.125 87.3359H180.023V110.727C180.023 111.398 180.102 111.922 180.258 112.297C180.414 112.656 180.68 112.914 181.055 113.07C181.445 113.211 181.961 113.281 182.602 113.281C183.055 113.281 183.43 113.273 183.727 113.258C184.023 113.227 184.305 113.188 184.57 113.141V118.789C183.898 119.008 183.195 119.172 182.461 119.281C181.727 119.406 180.945 119.469 180.117 119.469C178.43 119.469 176.984 119.203 175.781 118.672C174.594 118.141 173.688 117.305 173.062 116.164C172.438 115.023 172.125 113.539 172.125 111.711V87.3359ZM185.648 106.578V106.086C185.648 104.227 185.914 102.516 186.445 100.953C186.977 99.375 187.758 98.0078 188.789 96.8516C189.82 95.6953 191.094 94.7969 192.609 94.1562C194.125 93.5 195.875 93.1719 197.859 93.1719C199.859 93.1719 201.617 93.5 203.133 94.1562C204.664 94.7969 205.945 95.6953 206.977 96.8516C208.008 98.0078 208.789 99.375 209.32 100.953C209.852 102.516 210.117 104.227 210.117 106.086V106.578C210.117 108.422 209.852 110.133 209.32 111.711C208.789 113.273 208.008 114.641 206.977 115.812C205.945 116.969 204.672 117.867 203.156 118.508C201.641 119.148 199.891 119.469 197.906 119.469C195.922 119.469 194.164 119.148 192.633 118.508C191.102 117.867 189.82 116.969 188.789 115.812C187.758 114.641 186.977 113.273 186.445 111.711C185.914 110.133 185.648 108.422 185.648 106.578ZM193.547 106.086V106.578C193.547 107.531 193.617 108.422 193.758 109.25C193.898 110.078 194.133 110.805 194.461 111.43C194.789 112.039 195.234 112.516 195.797 112.859C196.359 113.203 197.062 113.375 197.906 113.375C198.734 113.375 199.422 113.203 199.969 112.859C200.531 112.516 200.977 112.039 201.305 111.43C201.633 110.805 201.867 110.078 202.008 109.25C202.148 108.422 202.219 107.531 202.219 106.578V106.086C202.219 105.164 202.148 104.297 202.008 103.484C201.867 102.656 201.633 101.93 201.305 101.305C200.977 100.664 200.531 100.164 199.969 99.8047C199.406 99.4453 198.703 99.2656 197.859 99.2656C197.031 99.2656 196.336 99.4453 195.773 99.8047C195.227 100.164 194.789 100.664 194.461 101.305C194.133 101.93 193.898 102.656 193.758 103.484C193.617 104.297 193.547 105.164 193.547 106.086ZM226.992 93.6406V99.125H211.711V93.6406H226.992ZM214.922 87.3359H222.82V110.727C222.82 111.398 222.898 111.922 223.055 112.297C223.211 112.656 223.477 112.914 223.852 113.07C224.242 113.211 224.758 113.281 225.398 113.281C225.852 113.281 226.227 113.273 226.523 113.258C226.82 113.227 227.102 113.188 227.367 113.141V118.789C226.695 119.008 225.992 119.172 225.258 119.281C224.523 119.406 223.742 119.469 222.914 119.469C221.227 119.469 219.781 119.203 218.578 118.672C217.391 118.141 216.484 117.305 215.859 116.164C215.234 115.023 214.922 113.539 214.922 111.711V87.3359ZM237.914 116.023L244.477 93.6406H252.961L242.766 122.773C242.547 123.414 242.258 124.102 241.898 124.836C241.539 125.586 241.047 126.297 240.422 126.969C239.797 127.641 238.992 128.188 238.008 128.609C237.039 129.031 235.836 129.242 234.398 129.242C233.633 129.242 233.07 129.203 232.711 129.125C232.367 129.062 231.836 128.945 231.117 128.773V123.125C231.32 123.125 231.492 123.125 231.633 123.125C231.789 123.125 231.961 123.125 232.148 123.125C232.992 123.125 233.664 123.039 234.164 122.867C234.68 122.695 235.07 122.445 235.336 122.117C235.617 121.789 235.836 121.391 235.992 120.922L237.914 116.023ZM236.25 93.6406L241.242 111.383L242.109 119.75H236.812L227.789 93.6406H236.25ZM262.992 98.5156V128.75H255.094V93.6406H262.453L262.992 98.5156ZM278.555 106.016V106.508C278.555 108.352 278.344 110.062 277.922 111.641C277.5 113.219 276.875 114.594 276.047 115.766C275.219 116.938 274.188 117.852 272.953 118.508C271.734 119.148 270.32 119.469 268.711 119.469C267.195 119.469 265.891 119.133 264.797 118.461C263.703 117.789 262.789 116.859 262.055 115.672C261.32 114.484 260.727 113.125 260.273 111.594C259.82 110.062 259.461 108.445 259.195 106.742V106.109C259.461 104.281 259.82 102.586 260.273 101.023C260.727 99.4453 261.32 98.0703 262.055 96.8984C262.789 95.7266 263.695 94.8125 264.773 94.1562C265.867 93.5 267.172 93.1719 268.688 93.1719C270.297 93.1719 271.711 93.4766 272.93 94.0859C274.164 94.6953 275.195 95.5703 276.023 96.7109C276.867 97.8359 277.5 99.1875 277.922 100.766C278.344 102.344 278.555 104.094 278.555 106.016ZM270.656 106.508V106.016C270.656 105.031 270.586 104.133 270.445 103.32C270.305 102.492 270.078 101.773 269.766 101.164C269.469 100.555 269.07 100.086 268.57 99.7578C268.07 99.4297 267.453 99.2656 266.719 99.2656C265.875 99.2656 265.164 99.3984 264.586 99.6641C264.023 99.9141 263.57 100.305 263.227 100.836C262.898 101.352 262.664 102 262.523 102.781C262.398 103.547 262.344 104.445 262.359 105.477V107.398C262.328 108.586 262.445 109.633 262.711 110.539C262.977 111.43 263.438 112.125 264.094 112.625C264.75 113.125 265.641 113.375 266.766 113.375C267.516 113.375 268.141 113.203 268.641 112.859C269.141 112.5 269.539 112.008 269.836 111.383C270.133 110.742 270.344 110.008 270.469 109.18C270.594 108.352 270.656 107.461 270.656 106.508ZM290.414 93.6406V119H282.492V93.6406H290.414ZM282.023 87.1016C282.023 85.9766 282.43 85.0547 283.242 84.3359C284.055 83.6172 285.109 83.2578 286.406 83.2578C287.703 83.2578 288.758 83.6172 289.57 84.3359C290.383 85.0547 290.789 85.9766 290.789 87.1016C290.789 88.2266 290.383 89.1484 289.57 89.8672C288.758 90.5859 287.703 90.9453 286.406 90.9453C285.109 90.9453 284.055 90.5859 283.242 89.8672C282.43 89.1484 282.023 88.2266 282.023 87.1016ZM303.047 99.0547V119H295.148V93.6406H302.555L303.047 99.0547ZM302.109 105.453L300.258 105.5C300.258 103.562 300.492 101.836 300.961 100.32C301.43 98.7891 302.094 97.4922 302.953 96.4297C303.812 95.3672 304.836 94.5625 306.023 94.0156C307.227 93.4531 308.562 93.1719 310.031 93.1719C311.203 93.1719 312.273 93.3438 313.242 93.6875C314.227 94.0312 315.07 94.5859 315.773 95.3516C316.492 96.1172 317.039 97.1328 317.414 98.3984C317.805 99.6484 318 101.195 318 103.039V119H310.055V103.016C310.055 102 309.914 101.227 309.633 100.695C309.352 100.148 308.945 99.7734 308.414 99.5703C307.883 99.3672 307.234 99.2656 306.469 99.2656C305.656 99.2656 304.969 99.4219 304.406 99.7344C303.844 100.047 303.391 100.484 303.047 101.047C302.719 101.594 302.477 102.242 302.32 102.992C302.18 103.742 302.109 104.562 302.109 105.453ZM338.32 93.6406H345.492V118.016C345.492 120.359 344.953 122.344 343.875 123.969C342.797 125.609 341.289 126.852 339.352 127.695C337.43 128.555 335.18 128.984 332.602 128.984C331.461 128.984 330.297 128.836 329.109 128.539C327.922 128.258 326.812 127.836 325.781 127.273C324.75 126.711 323.883 126.016 323.18 125.188L326.484 120.547C327.125 121.266 327.93 121.875 328.898 122.375C329.867 122.891 331.008 123.148 332.32 123.148C333.461 123.148 334.414 122.945 335.18 122.539C335.961 122.133 336.555 121.539 336.961 120.758C337.367 119.992 337.57 119.062 337.57 117.969V99.6406L338.32 93.6406ZM321.469 106.625V106.133C321.469 104.211 321.703 102.461 322.172 100.883C322.656 99.2891 323.344 97.9219 324.234 96.7812C325.141 95.625 326.234 94.7344 327.516 94.1094C328.797 93.4844 330.242 93.1719 331.852 93.1719C333.586 93.1719 335.008 93.5078 336.117 94.1797C337.242 94.8359 338.141 95.7578 338.812 96.9453C339.5 98.1328 340.031 99.5234 340.406 101.117C340.797 102.695 341.125 104.398 341.391 106.227V106.812C341.125 108.531 340.758 110.156 340.289 111.688C339.836 113.203 339.242 114.547 338.508 115.719C337.773 116.891 336.852 117.812 335.742 118.484C334.648 119.141 333.336 119.469 331.805 119.469C330.211 119.469 328.773 119.148 327.492 118.508C326.227 117.867 325.141 116.969 324.234 115.812C323.344 114.656 322.656 113.297 322.172 111.734C321.703 110.172 321.469 108.469 321.469 106.625ZM329.367 106.133V106.625C329.367 107.578 329.453 108.461 329.625 109.273C329.812 110.086 330.094 110.805 330.469 111.43C330.844 112.039 331.305 112.516 331.852 112.859C332.414 113.203 333.07 113.375 333.82 113.375C334.961 113.375 335.883 113.133 336.586 112.648C337.289 112.164 337.797 111.477 338.109 110.586C338.422 109.695 338.555 108.648 338.508 107.445V105.594C338.539 104.562 338.469 103.656 338.297 102.875C338.125 102.078 337.852 101.414 337.477 100.883C337.117 100.352 336.633 99.9531 336.023 99.6875C335.43 99.4062 334.711 99.2656 333.867 99.2656C333.133 99.2656 332.484 99.4375 331.922 99.7812C331.359 100.125 330.891 100.609 330.516 101.234C330.141 101.844 329.852 102.57 329.648 103.414C329.461 104.242 329.367 105.148 329.367 106.133Z" fill="black"/>
<path d="M1134 0H1348C1356.28 0 1363 6.71573 1363 15V148C1363 156.284 1356.28 163 1348 163H1134V0Z" fill="#AB4967"/>
<path fill-rule="evenodd" clip-rule="evenodd" d="M1202.75 46.5018C1202.75 45.3973 1203.65 44.5018 1204.75 44.5018H1292.25C1293.35 44.5018 1294.25 45.3973 1294.25 46.5018V116.498C1294.25 117.603 1293.35 118.498 1292.25 118.498H1204.75C1203.65 118.498 1202.75 117.603 1202.75 116.498V46.5018ZM1206.75 48.5018V52.9963H1290.25V48.5018H1206.75ZM1290.25 56.9963H1235.19V114.498H1290.25V56.9963ZM1231.19 114.498V56.9963H1206.75V114.498H1231.19Z" fill="white"/>
<path fill-rule="evenodd" clip-rule="evenodd" d="M1209.72 62.3022C1209.72 61.1976 1210.62 60.3022 1211.72 60.3022H1225.72C1226.83 60.3022 1227.72 61.1976 1227.72 62.3022V81.6974C1227.72 82.802 1226.83 83.6974 1225.72 83.6974H1211.72C1210.62 83.6974 1209.72 82.802 1209.72 81.6974V62.3022ZM1213.72 64.3022V79.6974H1223.72V64.3022H1213.72ZM1239.33 63.1982C1239.33 62.0936 1240.22 61.1982 1241.33 61.1982H1284.25C1285.36 61.1982 1286.25 62.0936 1286.25 63.1982V109.407C1286.25 110.511 1285.36 111.407 1284.25 111.407H1241.33C1240.22 111.407 1239.33 110.511 1239.33 109.407V63.1982ZM1243.33 65.1982V107.407H1282.25V65.1982H1243.33ZM1209.56 93.4381C1209.56 92.3336 1210.46 91.4381 1211.56 91.4381H1220.48C1221.59 91.4381 1222.48 92.3336 1222.48 93.4381C1222.48 94.5427 1221.59 95.4381 1220.48 95.4381H1211.56C1210.46 95.4381 1209.56 94.5427 1209.56 93.4381ZM1209.56 100.438C1209.56 99.3335 1210.46 98.4381 1211.56 98.4381H1226.1C1227.21 98.4381 1228.1 99.3335 1228.1 100.438C1228.1 101.543 1227.21 102.438 1226.1 102.438H1211.56C1210.46 102.438 1209.56 101.543 1209.56 100.438ZM1209.56 107.438C1209.56 106.334 1210.46 105.438 1211.56 105.438H1220.48C1221.59 105.438 1222.48 106.334 1222.48 107.438C1222.48 108.543 1221.59 109.438 1220.48 109.438H1211.56C1210.46 109.438 1209.56 108.543 1209.56 107.438Z" fill="white"/>
</svg>
